<svg width="1153" height="974" viewBox="0 0 1153 974" fill="none" xmlns="http://www.w3.org/2000/svg">
<path d="M552.5 973.547C221.263 973.547 -48 755.278 -48 486.773C-48 218.269 221.263 0 552.5 0C883.737 0 1153 218.269 1153 486.773C1153 755.278 883.737 973.547 552.5 973.547ZM552.5 6.23624C225.537 6.23624 -40.3067 221.733 -40.3067 486.773C-40.3067 751.814 225.537 967.311 552.5 967.311C879.463 967.311 1145.31 751.814 1145.31 486.773C1145.31 221.733 879.463 6.23624 552.5 6.23624Z" fill="black" fill-opacity="0.03"/>
<path d="M552.5 914.995C261.439 914.995 24.231 723.057 24.231 486.773C24.231 250.835 261.012 58.5505 552.5 58.5505C843.988 58.5505 1080.77 250.488 1080.77 486.773C1080.77 723.057 843.561 914.995 552.5 914.995ZM552.5 64.7868C265.713 64.7868 31.9242 253.953 31.9242 486.773C31.9242 719.246 265.286 908.758 552.5 908.758C839.714 908.758 1073.08 719.592 1073.08 486.773C1073.08 254.299 839.287 64.7868 552.5 64.7868Z" fill="black" fill-opacity="0.03"/>
<path d="M552.5 856.443C301.188 856.443 96.8894 690.49 96.8894 486.773C96.8894 283.056 301.188 117.449 552.5 117.449C803.812 117.449 1008.11 283.056 1008.11 486.773C1008.11 690.49 803.812 856.443 552.5 856.443ZM552.5 123.685C305.462 123.685 104.583 286.52 104.583 486.773C104.583 687.026 305.462 849.861 552.5 849.861C799.539 849.861 1000.42 687.026 1000.42 486.773C1000.42 286.52 799.539 123.685 552.5 123.685Z" fill="black" fill-opacity="0.03"/>
<path d="M552.5 797.546C340.936 797.546 169.12 658.27 169.12 486.773C169.12 315.276 340.936 176 552.5 176C764.064 176 935.88 315.276 935.88 486.773C935.88 658.27 764.064 797.546 552.5 797.546ZM552.5 182.236C345.21 182.236 176.814 318.741 176.814 486.773C176.814 654.805 345.21 791.309 552.5 791.309C759.79 791.309 928.187 654.805 928.187 486.773C928.187 318.741 759.79 182.236 552.5 182.236Z" fill="black" fill-opacity="0.03"/>
<path d="M552.5 738.995C381.112 738.995 241.351 626.05 241.351 486.774C241.351 347.498 380.684 234.552 552.5 234.552C724.316 234.552 863.649 347.498 863.649 486.774C863.649 626.05 723.888 738.995 552.5 738.995ZM552.5 241.135C385.386 241.135 249.044 351.309 249.044 487.12C249.044 622.932 384.958 733.105 552.5 733.105C720.042 733.105 855.955 622.932 855.955 487.12C855.955 351.309 719.614 241.135 552.5 241.135Z" fill="black" fill-opacity="0.03"/>
<path d="M552.5 680.097C420.86 680.097 314.01 593.483 314.01 486.774C314.01 380.065 420.86 293.45 552.5 293.45C684.14 293.45 790.99 380.065 790.99 486.774C790.99 593.483 684.14 680.097 552.5 680.097ZM552.5 299.686C425.134 299.686 321.703 383.529 321.703 486.774C321.703 590.018 425.134 673.861 552.5 673.861C679.866 673.861 783.297 590.018 783.297 486.774C783.297 383.529 679.866 299.686 552.5 299.686Z" fill="black" fill-opacity="0.03"/>
<path d="M552.5 621.546C461.036 621.546 386.24 561.263 386.24 486.774C386.24 412.286 460.608 352.002 552.5 352.002C644.391 352.002 718.759 412.286 718.759 486.774C718.759 561.263 643.964 621.546 552.5 621.546ZM552.5 358.238C465.31 358.238 393.934 415.75 393.934 486.774C393.934 557.798 464.883 615.31 552.5 615.31C640.117 615.31 711.066 557.798 711.066 486.774C711.066 415.75 640.117 358.238 552.5 358.238Z" fill="black" fill-opacity="0.03"/>
<path d="M552.5 562.994C500.784 562.994 458.471 529.041 458.471 486.773C458.471 444.506 500.357 410.553 552.5 410.553C604.643 410.553 646.528 444.506 646.528 486.773C646.528 529.041 604.216 562.994 552.5 562.994ZM552.5 417.135C505.058 417.135 466.592 448.317 466.592 486.773C466.592 525.23 505.058 556.412 552.5 556.412C599.942 556.412 638.408 525.23 638.408 486.773C638.408 448.317 599.942 417.135 552.5 417.135Z" fill="black" fill-opacity="0.03"/>
</svg>
