<svg width="86" height="83" viewBox="0 0 86 83" fill="none" xmlns="http://www.w3.org/2000/svg">
<path d="M58.5757 72.9592C55.9482 72.9403 53.3321 72.622 50.782 72.0108C41.9754 69.9601 32.9067 64.758 25.2507 57.3626C17.5947 49.9672 12.1979 41.2133 10.0731 32.722C7.83573 23.7898 9.43143 16.1479 14.5612 11.1971L16.0259 9.78351C17.3548 8.50354 19.1556 7.78467 21.033 7.78467C22.9105 7.78467 24.7113 8.50354 26.0402 9.78351L34.4571 17.9052C35.7842 19.1873 36.5296 20.9254 36.5296 22.7377C36.5296 24.5499 35.7842 26.288 34.4571 27.5702L29.4852 32.367C31.8687 36.4035 35.1105 40.4433 38.9419 44.141C42.7732 47.8387 46.9624 50.969 51.1431 53.2693L56.1133 48.4709C56.7708 47.8362 57.5514 47.3326 58.4105 46.9891C59.2696 46.6455 60.1905 46.4687 61.1204 46.4687C62.0504 46.4687 62.9713 46.6455 63.8304 46.9891C64.6895 47.3326 65.4701 47.8362 66.1276 48.4709L74.5428 56.5926C75.8702 57.8742 76.6159 59.6122 76.6159 61.4243C76.6159 63.2364 75.8702 64.9743 74.5428 66.2559L73.0765 67.6695C69.4601 71.1662 64.4546 72.9592 58.5757 72.9592ZM21.033 12.6447C20.7648 12.6435 20.4991 12.6938 20.2513 12.7929C20.0036 12.892 19.7788 13.0379 19.5902 13.2219L18.1238 14.6354C14.2824 18.3429 13.1603 24.362 14.9643 31.5743C16.8741 39.2145 21.7906 47.153 28.8066 53.9226C35.8227 60.6923 44.0464 65.4324 51.9645 67.2821C59.4391 69.0231 65.6724 67.9402 69.5138 64.2328L70.9785 62.8192C71.3612 62.4496 71.5762 61.9484 71.5762 61.4259C71.5762 60.9033 71.3612 60.4022 70.9785 60.0326L62.565 51.9109C62.182 51.5415 61.6627 51.3341 61.1213 51.3341C60.5799 51.3341 60.0606 51.5415 59.6776 51.9109L53.3771 57.9916C52.999 58.3567 52.5104 58.5962 51.982 58.6754C51.4535 58.7547 50.9127 58.6696 50.4376 58.4325C45.2726 55.855 40.0656 52.1022 35.3792 47.5793C30.6929 43.0565 26.8128 38.0343 24.1354 33.0494C23.8895 32.5912 23.8011 32.0692 23.883 31.5592C23.9648 31.0492 24.2126 30.5776 24.5906 30.2125L30.8928 24.1318C31.2755 23.7622 31.4905 23.261 31.4905 22.7385C31.4905 22.2159 31.2755 21.7148 30.8928 21.3452L22.4776 13.2219C22.2883 13.0382 22.0632 12.8926 21.8153 12.7935C21.5673 12.6944 21.3014 12.6439 21.033 12.6447Z" fill="#9EFF8E"/>
<path d="M61.2666 43.7257C60.5984 43.7257 59.9575 43.4696 59.485 43.0135C59.0125 42.5575 58.7471 41.939 58.7471 41.2941C58.7422 37.0282 56.9843 32.9384 53.859 29.9218C50.7337 26.9053 46.4962 25.2083 42.0762 25.2031C41.408 25.2031 40.7671 24.9469 40.2946 24.4909C39.8221 24.0349 39.5566 23.4164 39.5566 22.7715C39.5566 22.1266 39.8221 21.5081 40.2946 21.0521C40.7671 20.596 41.408 20.3398 42.0762 20.3398C54.0473 20.3398 63.7861 29.7422 63.7861 41.2941C63.7861 41.939 63.5207 42.5575 63.0482 43.0135C62.5757 43.4696 61.9348 43.7257 61.2666 43.7257Z" fill="#9EFF8E"/>
<path d="M71.9158 43.7261C71.2476 43.7261 70.6067 43.4699 70.1342 43.0139C69.6617 42.5579 69.3963 41.9394 69.3963 41.2945C69.3963 26.7549 57.1346 14.9258 42.0762 14.9258C41.408 14.9258 40.7671 14.6696 40.2946 14.2136C39.8221 13.7576 39.5566 13.1391 39.5566 12.4941C39.5566 11.8492 39.8221 11.2307 40.2946 10.7747C40.7671 10.3187 41.408 10.0625 42.0762 10.0625C59.9195 10.0625 74.4354 24.0736 74.4354 41.2945C74.4354 41.9394 74.1699 42.5579 73.6974 43.0139C73.2249 43.4699 72.584 43.7261 71.9158 43.7261Z" fill="#9EFF8E"/>
</svg>
