<svg width="411" height="158" viewBox="0 0 411 158" fill="none" xmlns="http://www.w3.org/2000/svg">
<path fill-rule="evenodd" clip-rule="evenodd" d="M298.223 17.6498C318.161 18.1157 334.009 22.713 349.857 27.8752C401.832 44.8275 419.215 71.1301 383.599 96.9768C328.216 137.059 199.216 163.292 99.1857 151.185C77.0326 148.517 47.0406 146.165 25.0578 133.136C4.60873 121.02 5.46078 106.618 14.8333 93.2841C24.3762 79.6128 42.7804 67.0303 57.4355 58.9422C121.509 23.654 249.827 -8.41822 365.876 8.48999C368.262 8.81577 370.648 8.25552 371.329 7.2387C372.011 6.22189 370.817 5.13156 368.602 4.80578C249.145 -12.5954 116.737 20.1656 50.7889 56.4822C32.5551 66.5676 8.69922 83.403 1.88286 100.822C-2.71819 112.727 0.518918 124.897 18.2415 135.484C41.5875 149.364 73.4543 152.082 96.9708 154.924C200.239 167.428 333.668 140.428 390.755 99.0313C429.097 71.2508 410.693 42.9533 354.799 24.7319C337.758 19.1309 320.376 14.2906 298.734 13.7861C296.348 13.7311 294.304 14.5522 294.304 15.6185C294.134 16.6849 296.008 17.5949 298.223 17.6498Z" fill="#2563EB"/>
</svg>
