<svg width="99" height="87" viewBox="0 0 99 87" fill="none" xmlns="http://www.w3.org/2000/svg">
<path d="M49.4939 3.69287C24.0209 3.69287 3.36377 21.9664 3.36377 44.5091C3.36377 62.539 16.5822 77.8344 34.921 83.236C37.2276 83.6132 38.0698 82.3531 38.0698 81.2705C38.0698 80.2998 38.0302 77.7333 38.006 74.3282C25.1747 76.7933 22.4648 68.8554 22.4648 68.8554C20.3711 64.139 17.3429 62.8845 17.3429 62.8845C13.1501 60.3538 17.6548 60.4051 17.6548 60.4051C22.2853 60.6942 24.719 64.6122 24.719 64.6122C28.8365 70.8474 35.5212 69.048 38.1507 68.0017C38.5656 65.3643 39.759 63.5659 41.0808 62.5445C30.8378 61.5125 20.0646 58.0108 20.0646 42.3749C20.0646 37.918 21.8648 34.2751 24.8166 31.4187C24.338 30.3871 22.7581 26.2349 25.2669 20.6195C25.2669 20.6195 29.1428 19.5226 37.9538 24.8019C41.6337 23.8971 45.5784 23.4456 49.5055 23.4303C53.421 23.4512 57.3706 23.8971 61.0564 24.8075C69.8633 19.5274 73.7328 20.6251 73.7328 20.6251C76.2469 26.2456 74.6672 30.3925 74.1944 31.4234C77.1522 34.2798 78.9348 37.923 78.9348 42.3803C78.9348 58.057 68.1506 61.5073 57.8741 62.5181C59.5291 63.7793 61.0048 66.2681 61.0048 70.0747C61.0048 75.5333 60.9474 79.9334 60.9474 81.2705C60.9474 82.3626 61.7774 83.633 64.1188 83.2314C82.4294 77.8238 95.636 62.5341 95.636 44.5091C95.6362 21.9663 74.979 3.69287 49.4939 3.69287Z" fill="#6879D9"/>
</svg>
