<svg width="121" height="127" viewBox="0 0 121 127" fill="none" xmlns="http://www.w3.org/2000/svg">
<path d="M60.5 126.764C93.9132 126.764 121 98.3868 121 63.382C121 28.3771 93.9132 0 60.5 0C27.0868 0 0 28.3771 0 63.382C0 98.3868 27.0868 126.764 60.5 126.764Z" fill="#F0DB4F"/>
<path d="M41.6241 38.79H52.1511V69.8472C52.1511 83.7912 45.7381 88.735 35.5741 88.735C33.0331 88.735 29.8871 88.3547 27.8301 87.5941L29.0401 78.5939C30.4921 79.101 32.4281 79.4813 34.4851 79.4813C38.9621 79.4813 41.7451 77.3263 41.7451 69.8472L41.6241 38.79Z" fill="#323330"/>
<path d="M61.468 76.5655C64.251 78.0867 68.728 79.6079 73.205 79.6079C78.045 79.6079 80.586 77.4529 80.586 74.157C80.586 71.1147 78.408 69.34 72.721 67.3118C64.977 64.3962 59.774 59.8327 59.774 52.6071C59.774 44.3675 66.55 38.0293 77.561 38.0293C82.885 38.0293 86.757 39.1702 89.54 40.5646L87.12 49.438C85.305 48.5507 81.917 47.1563 77.44 47.1563C72.842 47.1563 70.664 49.4381 70.664 51.8466C70.664 55.0157 73.205 56.4101 79.376 58.8186C87.604 61.9877 91.476 66.5512 91.476 73.5232C91.476 81.7628 85.547 88.7349 72.6 88.7349C67.276 88.7349 61.952 87.2137 59.29 85.6925L61.468 76.5655Z" fill="#323330"/>
</svg>
