<svg width="90" height="87" viewBox="0 0 90 87" fill="none" xmlns="http://www.w3.org/2000/svg">
<g clip-path="url(#clip0_1009_427)">
<path d="M90 81.5625C90 84.564 87.48 87 84.375 87H5.625C2.52 87 0 84.564 0 81.5625V5.4375C0 2.436 2.52 0 5.625 0H84.375C87.48 0 90 2.436 90 5.4375V81.5625Z" fill="#007BB5"/>
<path d="M30.9375 29.9062H19.6875V67.9688H30.9375V29.9062Z" fill="white"/>
<path d="M57.6534 29.9062C49.8038 29.9062 48.4537 32.6739 47.8125 35.3438V29.9062H36.5625V67.9688H47.8125V46.2188C47.8125 42.6925 49.7897 40.7812 53.4375 40.7812C56.9981 40.7812 59.0625 42.6517 59.0625 46.2188V67.9688H70.3125V48.9375C70.3125 38.0625 68.8472 29.9062 57.6534 29.9062Z" fill="white"/>
<path d="M25.3125 27.1875C28.4191 27.1875 30.9375 24.753 30.9375 21.75C30.9375 18.747 28.4191 16.3125 25.3125 16.3125C22.2059 16.3125 19.6875 18.747 19.6875 21.75C19.6875 24.753 22.2059 27.1875 25.3125 27.1875Z" fill="white"/>
</g>
<defs>
<clipPath id="clip0_1009_427">
<rect width="90" height="87" fill="white"/>
</clipPath>
</defs>
</svg>
