<svg width="149" height="53" viewBox="0 0 149 53" fill="none" xmlns="http://www.w3.org/2000/svg">
<path d="M138.867 22.3561C138.743 22.3937 138.589 22.7328 138.589 22.9588C138.558 24.2773 138.527 27.7431 138.527 30.1163C138.527 30.1917 138.62 30.3047 138.681 30.3047C139.083 30.3424 140.039 30.38 140.872 30.38C142.014 30.38 142.693 30.1917 143.064 30.0033C144.02 29.4006 144.483 28.1198 144.483 26.7259C144.483 23.5615 142.662 22.3184 139.947 22.3184C139.792 22.2431 139.268 22.2431 138.867 22.3561ZM145.779 37.0102C145.779 33.7705 143.835 31.9622 140.286 31.9622C140.132 31.9622 138.99 31.9246 138.743 31.9999C138.651 32.0376 138.558 32.1129 138.558 32.1883C138.558 34.5239 138.527 38.2157 138.62 39.6472C138.681 40.2876 139.052 41.154 139.515 41.4177C140.008 41.7568 141.089 41.7944 141.86 41.7944C143.928 41.7944 145.779 40.3629 145.779 37.0102ZM133.374 20.5479C133.651 20.5479 134.454 20.6609 136.521 20.6609C138.465 20.6609 140.039 20.5855 141.953 20.5855C144.298 20.5855 147.507 21.6026 147.507 25.8595C147.507 27.9691 146.304 29.6266 144.73 30.4554C144.637 30.4931 144.637 30.5684 144.73 30.5684C146.983 31.2465 148.958 32.9417 148.958 36.1814C148.958 39.3081 147.353 41.3424 145.008 42.5855C143.588 43.3389 141.829 43.6026 140.008 43.6026C138.651 43.6026 134.978 43.4143 132.911 43.4896C132.695 43.3766 133.096 42.2088 133.281 42.0205C133.775 41.9828 134.145 41.9451 134.639 41.7568C135.349 41.5307 135.441 41.267 135.565 39.9109C135.626 38.7807 135.626 34.7122 135.626 31.8115C135.626 27.8561 135.657 25.1437 135.626 23.8629C135.596 22.8458 135.318 22.5068 134.701 22.3184C134.238 22.2054 133.497 22.0924 132.88 21.9794C132.756 21.791 133.219 20.6609 133.374 20.5479ZM117.913 40.928C118.561 41.5684 119.826 41.7944 120.937 41.7944C122.388 41.7944 123.838 41.4554 125.227 39.9109C126.646 38.3287 127.634 35.9177 127.634 32.0376C127.634 28.3458 126.492 25.3321 124.116 23.5615C122.789 22.5444 121.061 22.13 119.086 22.13C118.499 22.13 117.944 22.1677 117.574 22.3561C117.481 22.4314 117.296 22.7328 117.296 22.8835C117.234 23.5239 117.234 28.5718 117.234 31.5479C117.234 34.5992 117.234 38.8561 117.296 39.3458C117.327 39.8355 117.512 40.5889 117.913 40.928ZM111.803 20.5479C112.328 20.5479 114.272 20.6609 115.197 20.6609C116.895 20.6609 118.098 20.5479 121.277 20.5479C123.962 20.5479 126.214 21.4143 127.819 23.1095C129.763 25.1814 130.812 28.0068 130.812 31.5102C130.812 36.4451 128.961 39.3081 127.109 40.928C125.258 42.5855 122.851 43.565 119.394 43.565C117.574 43.565 114.426 43.4896 111.834 43.452H111.803C111.68 43.1506 112.019 42.0205 112.235 41.9828C112.945 41.8698 113.13 41.8698 113.469 41.6814C114.025 41.4177 114.148 41.041 114.21 39.8355C114.303 37.5752 114.272 34.8629 114.272 31.7739C114.272 29.5889 114.303 25.2944 114.241 23.9006C114.148 22.7705 113.747 22.4691 112.945 22.2807C112.544 22.1677 112.019 22.0547 111.248 21.9417C111.186 21.7533 111.68 20.7362 111.803 20.5479Z" fill="#8E714E"/>
<path d="M79.3388 42.2092C78.6599 42.0961 78.197 41.9831 77.5798 41.6441C77.4872 41.5687 77.3638 41.2674 77.3638 41.1167C77.3021 39.9866 77.3021 36.7092 77.3021 34.4866C77.3021 32.716 77.0552 31.1715 76.438 30.079C75.7282 28.8359 74.679 28.1201 73.3212 28.1201C72.1485 28.1201 70.5439 29.0996 69.2478 30.4934C69.2169 30.5311 69.0009 30.7571 69.0317 30.3804C69.0317 30.0037 69.0935 29.2879 69.1243 28.7982C69.1552 28.3461 68.9392 28.1201 68.9392 28.1201C68.0751 28.6475 65.6681 29.3256 64.7732 29.4386C64.1251 29.5893 63.9708 30.3427 64.6497 30.6064H64.6806C65.3903 30.8701 65.8841 31.1715 66.2544 31.4729C66.5321 31.7366 66.5013 32.1133 66.5013 32.377C66.5321 34.8256 66.5321 38.5927 66.4396 40.6646C66.4087 41.4934 66.2235 41.7948 65.7298 41.9078L65.7915 41.8701C65.4212 41.9831 65.1126 42.0585 64.6497 42.1338C64.4954 42.3222 64.4954 43.377 64.6497 43.603C64.9583 43.603 66.5013 43.49 67.7974 43.49C69.5564 43.49 70.4821 43.603 70.945 43.603C71.1302 43.3393 71.1919 42.3598 71.0685 42.1338C70.5439 42.0961 70.1735 42.0208 69.8341 41.9078C69.3403 41.7948 69.2169 41.4934 69.186 40.7777C69.1243 39.0448 69.1243 35.3907 69.1243 32.8667C69.1243 32.1886 69.2786 31.8496 69.4329 31.6612C70.0501 31.0208 71.0376 30.5311 71.9325 30.5311C72.7966 30.5311 73.3521 30.8701 73.7841 31.2845C74.3704 31.8872 74.5556 32.716 74.6482 33.3564C74.7716 34.7503 74.7407 37.5379 74.7407 39.9866C74.7407 41.305 74.6482 41.6064 74.247 41.7948C74.0618 41.9078 73.5681 42.0208 73.0126 42.0961C72.8274 42.3222 72.8892 43.3393 73.0126 43.5653C73.7841 43.5653 74.7099 43.4523 76.0368 43.4523C77.7032 43.4523 78.7833 43.5653 79.2153 43.5653C79.4005 43.4146 79.4622 42.4729 79.3388 42.2092ZM86.7759 29.7023C85.3564 29.7023 84.4614 31.0585 84.4614 33.1304C84.4614 35.2776 85.2329 37.7263 87.4548 37.7263C87.8251 37.7263 88.5349 37.5379 88.8435 37.0859C89.3681 36.4831 89.7075 35.3153 89.7075 34.0722C89.7075 31.3222 88.5966 29.7023 86.7759 29.7023ZM86.5907 44.1681C86.0661 44.1681 85.665 44.3564 85.4489 44.5448C84.3071 45.4112 83.8134 46.2777 83.8134 47.2948C83.8134 48.2366 84.122 48.99 84.7392 49.6681C85.5107 50.4968 86.5907 50.8735 87.9485 50.8735C90.695 50.8735 91.8985 49.0653 91.8985 47.2948C91.8985 46.0516 91.3739 45.2229 90.3556 44.7708C89.5841 44.3564 88.2263 44.1681 86.5907 44.1681ZM86.7759 52.6818C85.1403 52.6818 83.9677 52.2674 82.9493 51.2879C81.9618 50.3838 81.5298 48.99 81.5298 48.0482C81.5298 47.7845 81.5915 47.0687 82.0544 46.4283C82.363 46.0516 82.9802 45.2982 84.5232 44.0174C84.5849 43.9797 84.6157 43.942 84.6157 43.9044C84.6157 43.829 84.554 43.7914 84.5232 43.7537C83.2579 43.1509 82.8876 42.2092 82.7642 41.6818V41.5687C82.7333 41.3804 82.6716 41.192 82.9185 40.966C83.1036 40.8153 83.3814 40.5893 83.6591 40.3633C84.122 40.0242 84.5849 39.6852 84.8935 39.3838C84.9552 39.3085 84.9552 39.2708 84.9552 39.1955C84.9552 39.1201 84.8935 39.0824 84.8626 39.0448C82.9802 38.2914 82.0544 36.5961 82.0544 34.0345C82.0544 32.377 82.6716 30.8701 83.7825 29.8907C84.5232 29.1749 86.4056 28.2708 87.64 28.2708H87.7325C88.9978 28.3085 89.6767 28.6475 90.695 29.0619C91.2196 29.2879 91.7442 29.4009 92.454 29.4009C93.5032 29.4009 93.9661 29.0242 94.3364 28.5345C94.3673 28.6098 94.429 28.7605 94.429 29.1749C94.4599 29.5893 94.3364 30.2297 94.0896 30.6818C93.8736 31.0585 93.3798 31.3222 92.9169 31.3222H92.7935C92.2997 31.2468 92.0837 31.2092 92.0837 31.2092L91.9911 31.2845C91.9603 31.3598 91.9911 31.3975 92.022 31.5105L92.0528 31.5859C92.1146 31.8872 92.2071 32.7537 92.2071 32.9797C92.2071 35.6544 91.3122 36.8598 90.3864 37.7263C89.4607 38.555 88.4423 39.0824 87.2388 39.1955C87.2079 39.1955 87.1153 39.1955 86.8685 39.2331C86.745 39.2331 86.5599 39.2708 86.529 39.2708H86.4982C86.2821 39.3461 85.7575 39.6475 85.7575 40.2126C85.7575 40.7023 86.0044 41.305 87.1462 41.3804C87.3931 41.4181 87.6399 41.4181 87.8868 41.4557C89.4298 41.5687 91.3122 41.7571 92.2071 42.0961C93.4415 42.6612 94.213 43.9797 94.213 45.5996C94.213 48.0105 92.7935 50.2708 90.4173 51.7023C89.1829 52.3427 88.0411 52.6818 86.7759 52.6818ZM102.082 29.853C101.527 29.853 101.002 30.0037 100.632 30.3427C99.5825 31.1338 99.0579 32.716 99.0579 34.9763C99.0579 39.2708 100.817 42.2845 103.347 42.2845C104.088 42.2845 104.674 42.0208 105.199 41.4934C105.97 40.7023 106.372 39.1201 106.372 36.9352C106.372 32.716 104.613 29.853 102.082 29.853ZM102.545 43.8667C97.9778 43.8667 96.3423 39.7605 96.3423 35.9557C96.3423 33.2811 97.2372 31.2092 98.9962 29.74C100.261 28.7982 101.774 28.2708 103.1 28.2708C106.588 28.2708 109.025 31.3222 109.025 35.692C109.025 38.6681 108.069 41.0414 106.217 42.4729C105.353 43.1886 103.81 43.8667 102.545 43.8667ZM54.7439 29.853C54.1884 29.853 53.6638 30.0037 53.2935 30.3427C52.2442 31.1338 51.7196 32.716 51.7196 34.9763C51.7196 39.2708 53.4786 42.2845 56.0091 42.2845C56.7497 42.2845 57.336 42.0208 57.8607 41.4934C58.6321 40.7023 59.0333 39.1201 59.0333 36.9352C59.0333 32.716 57.3052 29.853 54.7439 29.853ZM55.2376 43.8667C50.6704 43.8667 49.0349 39.7605 49.0349 35.9557C49.0349 33.2811 49.9298 31.2092 51.6888 29.74C52.954 28.7982 54.4661 28.2708 55.7931 28.2708C59.2802 28.2708 61.7181 31.3222 61.7181 35.692C61.7181 38.6681 60.7614 41.0414 58.9099 42.4729C58.0458 43.1886 56.5028 43.8667 55.2376 43.8667ZM24.5634 43.5276C24.5017 43.4146 24.4708 43.1509 24.4708 42.7742C24.4708 42.5105 24.5325 42.3598 24.5634 42.2845C25.1189 42.1715 25.4274 42.0961 25.736 41.9831C26.2607 41.8324 26.4767 41.4557 26.5075 40.627C26.6001 38.6681 26.6001 34.9386 26.5692 32.3393V32.264C26.5692 31.9626 26.5692 31.6235 26.2607 31.3598C25.8286 31.0208 25.3349 30.7194 24.656 30.4934C24.4091 30.3804 24.2548 30.2297 24.2857 30.0413C24.2857 29.853 24.4399 29.627 24.8103 29.5516C25.7052 29.4386 27.9888 28.7605 28.9146 28.2708C28.9763 28.3461 29.038 28.5345 29.038 28.7982L29.0071 29.1749C28.9763 29.5516 28.9454 29.966 28.9454 30.3804C28.9454 30.4934 29.038 30.6064 29.1614 30.6064C29.2232 30.6064 29.254 30.5687 29.3157 30.5311C31.0439 28.9112 32.5868 28.3085 33.3892 28.3085C34.7161 28.3085 35.7345 29.0619 36.506 30.6441C36.5677 30.7571 36.5985 30.7571 36.6911 30.7571C36.7528 30.7571 36.8146 30.7194 36.8454 30.6441C38.4192 29.1749 40.0239 28.2708 41.0732 28.2708C43.5728 28.2708 45.054 30.5311 45.054 34.3735C45.054 35.466 45.054 36.8598 45.0232 38.1407C45.0232 39.2708 44.9923 40.3256 44.9923 41.079C44.9923 41.2297 45.1775 41.7571 45.486 41.8701C45.8564 42.0961 46.381 42.2092 47.029 42.3222H47.0599C47.1216 42.5482 46.9982 43.4146 46.9056 43.5653C46.7513 43.5653 46.5044 43.5653 46.2267 43.5276C45.7021 43.49 44.9923 43.4523 44.1899 43.4523C42.5235 43.4523 41.6595 43.49 40.8263 43.5653C40.7646 43.3016 40.7337 42.5105 40.8263 42.3222C41.32 42.2092 41.536 42.1338 41.8446 42.0208C42.3692 41.8324 42.5235 41.5311 42.5544 40.6646C42.5544 40.0242 42.647 34.7503 42.4927 33.4694C42.3384 32.1509 41.536 30.6064 39.7462 30.6064C39.0673 30.6064 38.0181 30.9455 36.9997 31.8872C36.938 31.9626 36.9071 32.1133 36.9071 32.2263V32.264C36.9997 32.942 36.9997 33.7331 36.9997 34.9386V37.0859C36.9997 38.555 36.9689 39.9489 36.9997 40.966C36.9997 41.6818 37.3392 41.8324 37.6478 41.9831C37.8021 42.0208 37.9255 42.0585 38.0489 42.0961C38.2958 42.1715 38.5427 42.2092 38.913 42.3222C38.9747 42.4352 38.9747 42.8872 38.8821 43.2263C38.8513 43.4146 38.7896 43.5277 38.7896 43.5653C37.8638 43.5277 36.938 43.49 35.5802 43.49C35.179 43.49 34.4692 43.5276 33.8829 43.5276C33.3892 43.5276 32.9571 43.5653 32.6794 43.5653C32.6485 43.49 32.5868 43.264 32.5868 42.9249C32.5868 42.6235 32.6485 42.3975 32.6794 42.3222C32.8028 42.2845 32.9263 42.2468 33.0497 42.2468C33.3583 42.1715 33.636 42.1338 33.9138 42.0585C34.3767 41.9078 34.531 41.6064 34.5618 40.8907C34.6544 39.2708 34.7161 34.5619 34.531 33.3941C34.2224 31.5105 33.3274 30.5311 31.9079 30.5311C31.0747 30.5311 30.0255 31.0208 29.1614 31.8119C29.038 31.9249 28.9146 32.264 28.9146 32.5653V34.4866C28.9146 36.8598 28.9146 39.7982 28.9454 41.079C28.9763 41.4557 29.0689 41.9455 29.686 42.0961C29.8095 42.1338 30.0255 42.2092 30.3032 42.2092L30.797 42.3222C30.8587 42.5105 30.8278 43.3016 30.7044 43.5653C30.4267 43.5653 30.1181 43.5276 29.7478 43.5276C29.1923 43.49 28.4517 43.4523 27.6493 43.4523C26.7235 43.4523 26.0446 43.49 25.4892 43.5276C25.1806 43.5276 24.872 43.5276 24.5634 43.5276Z" fill="#442D22"/>
<path d="M10.4296 51.4009L9.31869 50.9488C9.31869 50.9488 9.44213 44.0927 7.43627 43.6029C6.10932 41.7194 7.65229 -36.9758 12.4663 43.3392C12.4663 43.3392 10.7999 44.3564 10.5222 46.0892C10.2136 47.7844 10.4296 51.4009 10.4296 51.4009Z" fill="white"/>
<path d="M10.4296 51.4009L9.31869 50.9488C9.31869 50.9488 9.44213 44.0927 7.43627 43.6029C6.10932 41.7194 7.65229 -36.9758 12.4663 43.3392C12.4663 43.3392 10.7999 44.3564 10.5222 46.0892C10.2136 47.7844 10.4296 51.4009 10.4296 51.4009Z" fill="#A6A385"/>
<path d="M11.0161 44.7704C11.0161 44.7704 20.6442 37.0478 18.3915 20.9622C16.2313 9.28411 11.0778 5.44164 10.5224 3.97246C9.90518 2.91767 9.31885 1.07178 9.31885 1.07178L9.72002 33.5821C9.75088 33.6574 8.91768 43.5649 11.0161 44.7704Z" fill="white"/>
<path d="M11.0161 44.7704C11.0161 44.7704 20.6442 37.0478 18.3915 20.9622C16.2313 9.28411 11.0778 5.44164 10.5224 3.97246C9.90518 2.91767 9.31885 1.07178 9.31885 1.07178L9.72002 33.5821C9.75088 33.6574 8.91768 43.5649 11.0161 44.7704Z" fill="#499D4A"/>
<path d="M8.76328 45.2227C8.76328 45.2227 -0.278512 37.6884 0.246098 24.4282C0.770707 11.1679 7.12774 4.65076 8.36211 3.44529C9.19532 2.39049 9.22618 2.01378 9.28789 0.958984C9.84336 2.42816 9.75078 22.9967 9.8125 25.4453C10.0594 34.7501 9.38047 43.4521 8.76328 45.2227Z" fill="white"/>
<path d="M8.76328 45.2227C8.76328 45.2227 -0.278512 37.6884 0.246098 24.4282C0.770707 11.1679 7.12774 4.65076 8.36211 3.44529C9.19532 2.39049 9.22618 2.01378 9.28789 0.958984C9.84336 2.42816 9.75078 22.9967 9.8125 25.4453C10.0594 34.7501 9.38047 43.4521 8.76328 45.2227Z" fill="#58AA50"/>
</svg>
