<svg width="107" height="101" viewBox="0 0 107 101" fill="none" xmlns="http://www.w3.org/2000/svg">
<g clip-path="url(#clip0_1006_305)">
<path fill-rule="evenodd" clip-rule="evenodd" d="M0 50.5C0 22.6096 23.9527 0 53.5 0C83.047 0 107 22.6096 107 50.5C107 67.9191 97.6568 83.2785 83.4422 92.3564L35.0023 28.3434C34.1011 27.1525 32.4881 26.6476 31.0115 27.0942C29.535 27.5408 28.5333 28.8367 28.5333 30.3003V80.8H35.6667V40.8058L77.2533 95.7621C70.0965 99.1153 62.0315 101 53.5 101C23.9527 101 0 78.3901 0 50.5ZM71.3333 67.3333V26.9333H78.4667V67.3333H71.3333Z" fill="black"/>
</g>
<defs>
<clipPath id="clip0_1006_305">
<rect width="107" height="101" fill="white"/>
</clipPath>
</defs>
</svg>
