<svg width="94" height="103" viewBox="0 0 94 103" fill="none" xmlns="http://www.w3.org/2000/svg">
<path d="M46.979 102.261C45.5694 102.261 44.1389 101.899 42.8978 101.214L29.9181 93.8609C27.9828 92.8132 28.9293 92.4508 29.5606 92.2491C32.1478 91.3828 32.6738 91.2018 35.4295 89.6907C35.7243 89.5298 36.1029 89.5898 36.3972 89.7715L46.3687 95.4321C46.7264 95.6333 47.2309 95.6333 47.5676 95.4321L86.4228 73.9568C86.7807 73.7553 87.0116 73.3525 87.0116 72.9497V29.9995C87.0116 29.5765 86.7807 29.1938 86.402 28.9724L47.5678 7.51718C47.2104 7.31568 46.7266 7.31568 46.3689 7.51718L7.55591 28.9923C7.17702 29.1938 6.94586 29.5965 6.94586 30.0196V72.9497C6.94586 73.3525 7.17702 73.7553 7.55591 73.9369L18.2008 79.8193C23.986 82.579 27.52 79.3357 27.52 76.0523V33.6659C27.52 33.0616 28.0248 32.5983 28.6562 32.5983H33.5788C34.1889 32.5983 34.7146 33.0616 34.7146 33.6659V76.0724C34.7146 83.4455 30.5071 87.6761 23.2077 87.6761C20.9565 87.6761 19.1895 87.6761 14.2669 85.3393L4.08505 79.7187C1.56049 78.3285 0.00390625 75.7297 0.00390625 72.9298V29.9995C0.00390625 27.2196 1.56049 24.6007 4.08505 23.2107L42.8978 1.73542C45.359 0.405902 48.6199 0.405902 51.0601 1.73542L89.9158 23.2306C92.4401 24.6206 93.9967 27.2193 93.9967 30.0196V72.9497C93.9967 75.7297 92.4401 78.3285 89.9158 79.7387L51.0601 101.214C49.8188 101.899 48.409 102.261 46.979 102.261ZM78.3453 59.9359C78.3453 51.8977 72.6652 49.7624 60.7375 48.2517C48.6618 46.7205 47.442 45.9348 47.442 43.2353C47.442 40.9994 48.4729 38.0177 57.4134 38.0177C65.3867 38.0177 68.3319 39.6697 69.5518 44.827C69.6571 45.3104 70.1203 45.673 70.6456 45.673H75.6951C76.0102 45.673 76.3047 45.5523 76.5154 45.3305C76.726 45.1091 76.8309 44.8067 76.8092 44.5044C76.0314 35.6206 69.8673 31.4906 57.4134 31.4906C46.3272 31.4906 39.7217 35.9629 39.7217 43.4772C39.7217 51.6159 46.306 53.8726 56.9295 54.8792C69.6571 56.0681 70.6456 57.8611 70.6456 60.2584C70.6456 64.4087 67.154 66.1809 58.9705 66.1809C48.6835 66.1809 46.4323 63.7031 45.675 58.8081C45.5909 58.2844 45.1278 57.9017 44.5602 57.9017H39.5321C38.901 57.9017 38.4175 58.3853 38.4175 58.969C38.4175 65.2348 41.9727 72.7087 58.9917 72.7087C71.2768 72.6884 78.3453 68.034 78.3453 59.9359Z" fill="#539E43"/>
</svg>
