<svg width="121" height="114" viewBox="0 0 121 114" fill="none" xmlns="http://www.w3.org/2000/svg">
<path d="M60.3991 66.4617C65.9902 66.4617 70.5227 62.1914 70.5227 56.9237C70.5227 51.6561 65.9902 47.3857 60.3991 47.3857C54.8079 47.3857 50.2754 51.6561 50.2754 56.9237C50.2754 62.1914 54.8079 66.4617 60.3991 66.4617Z" fill="#00D8FF"/>
<path d="M60.3993 78.7737C46.1818 78.7737 33.7591 77.1967 24.4623 74.1947C18.4325 72.2567 13.3101 69.6727 9.65996 66.7277C5.78796 63.6117 3.73096 60.2107 3.73096 56.9237C3.73096 50.6157 11.0716 44.4407 23.3935 40.4127C33.4768 37.1067 46.6255 35.2637 60.3791 35.2637C73.8908 35.2637 86.858 37.0497 96.8808 40.3177C102.749 42.2177 107.69 44.6877 111.199 47.4237C115.011 50.4257 117.027 53.7127 117.027 56.9237C117.027 63.4787 108.819 70.1097 95.5901 74.2327C86.2328 77.1587 73.7295 78.7737 60.3993 78.7737ZM60.3993 39.8237C47.3515 39.8237 34.4448 41.6097 25.0068 44.7067C13.6731 48.4307 8.59112 53.5227 8.59112 56.9237C8.59112 60.4577 14.0563 66.0247 26.0353 69.8817C34.828 72.7127 46.7263 74.2137 60.3993 74.2137C73.2253 74.2137 85.1841 72.6937 94.0776 69.9007C106.52 66.0057 112.207 60.4387 112.207 56.9237C112.207 55.1187 110.755 52.9907 108.114 50.9197C105.068 48.5257 100.632 46.3407 95.328 44.6117C85.7891 41.5337 73.3866 39.8237 60.3993 39.8237Z" fill="#00D8FF"/>
<path d="M37.4291 104.462C35.3721 104.462 33.5571 104.044 32.0244 103.208C26.2366 100.054 24.2199 90.9717 26.6601 78.9067C28.6566 69.0077 33.5369 57.3797 40.4138 46.1507C47.1696 35.1307 55.2766 25.4407 63.2828 18.8857C67.9614 15.0477 72.7006 12.2357 76.9759 10.7537C81.6344 9.13867 85.6678 9.13867 88.6121 10.7347C94.6419 14.0027 96.6384 24.0347 93.8151 36.8787C91.8186 45.9987 87.0593 56.9997 80.4043 67.8867C73.3056 79.4767 65.6423 88.8247 58.2411 94.9237C53.4414 98.8757 48.5006 101.764 43.9833 103.265C41.6238 104.063 39.4054 104.462 37.4291 104.462ZM42.4909 47.2907L44.5883 48.4307C38.0744 59.0707 33.2546 70.4897 31.3993 79.7617C29.1608 90.8767 31.3186 97.5647 34.4243 99.2557C35.1906 99.6737 36.1989 99.9017 37.4291 99.9017C41.4423 99.9017 47.7544 97.5077 55.0548 91.5037C62.0526 85.7467 69.3731 76.7787 76.2096 65.6257C82.6226 55.1567 87.1803 44.6307 89.0759 35.9857C91.7178 23.8827 89.4389 16.4727 86.1921 14.7057C84.5384 13.8127 81.8563 13.9267 78.6296 15.0477C74.8988 16.3397 70.6839 18.8667 66.4489 22.3437C58.8461 28.5757 51.0819 37.8477 44.5883 48.4497L42.4909 47.2907Z" fill="#00D8FF"/>
<path d="M83.369 104.519C77.8837 104.519 70.9262 101.403 63.6662 95.5131C55.5592 88.9391 47.311 79.1541 40.414 67.9251C33.638 56.9051 28.798 45.4481 26.7612 35.6251C25.5714 29.8871 25.3495 24.6241 26.1159 20.3871C26.9629 15.7701 28.9594 12.4831 31.9239 10.8681C37.9335 7.58107 48.158 10.9631 58.564 19.6841C65.945 25.8591 73.689 35.2451 80.3642 46.1131C87.483 57.7031 92.2625 68.6281 94.1582 77.7101C95.3883 83.6001 95.59 89.0721 94.7228 93.5181C93.7952 98.2491 91.6979 101.612 88.6729 103.265C87.1604 104.101 85.3655 104.519 83.369 104.519ZM44.6087 65.6451C51.1427 76.2851 59.2497 85.9181 66.8323 92.0551C75.9275 99.4271 83.1472 101.023 86.273 99.3131C89.5198 97.5461 91.8995 90.3071 89.4392 78.6031C87.6242 70.0151 83.0463 59.5651 76.1897 48.4121C69.7565 37.9431 62.3554 28.9561 55.3575 23.1041C45.5565 14.8961 37.6109 13.0531 34.364 14.8201C32.7104 15.7131 31.4802 17.9741 30.8954 21.1661C30.2299 24.8521 30.4315 29.5641 31.5205 34.7511C33.4565 44.0801 38.0949 55.0431 44.6087 65.6451Z" fill="#00D8FF"/>
</svg>
