<svg width="103" height="98" viewBox="0 0 103 98" fill="none" xmlns="http://www.w3.org/2000/svg">
<path d="M71.3835 67.3912C75.1129 67.085 78.0055 63.9612 77.8167 60.2291C77.6193 56.4969 74.4048 53.4997 70.4865 53.4997H70.2247C66.1777 53.6263 63.0233 56.8644 63.1521 60.7231C63.2808 62.6791 64.122 64.2716 65.2721 65.4312C60.7745 73.7531 54.0237 79.8699 43.7966 85.0108C36.9171 88.4326 29.6513 89.723 22.5786 88.8042C16.6647 88.0121 12.0383 85.4967 9.2058 81.4624C4.96563 75.3415 4.57938 68.7387 8.11142 62.1319C10.6907 57.3585 14.5446 53.8713 17.1196 52.1563C16.4759 50.5679 15.7034 47.877 15.3171 45.8598C-3.7207 58.8326 -1.78516 76.5706 4.00001 84.9537C8.30884 91.0705 17.1196 94.9823 26.763 94.9823C29.3337 94.9823 32.0375 94.8026 34.6726 94.1901C51.3929 91.1317 64.0576 81.589 71.3234 67.5178L71.3835 67.3912ZM94.3353 52.0951C84.3743 40.9598 69.7097 34.843 52.9894 34.843H50.8006C49.7148 32.5808 47.2085 31.1721 44.376 31.1721H44.1829C40.1358 31.1721 36.9815 34.4796 37.1145 38.3301C37.2433 41.997 40.5221 45.0595 44.4447 45.0595H44.7623C47.6591 44.937 50.1655 43.222 51.1912 40.7761H53.573C63.4825 40.7761 72.8641 43.5282 81.4174 48.9101C87.9708 53.0097 92.6701 58.3916 95.3052 64.8187C97.6141 70.0781 97.4897 75.219 95.1121 79.5065C91.447 86.2317 85.2713 89.7842 77.1085 89.7842C71.9628 89.7842 66.9502 88.253 64.3752 87.1546C62.8345 88.3714 60.2595 90.3926 58.3926 91.6176C64.049 94.0595 69.7741 95.4682 75.3018 95.4682C87.842 95.4682 97.1592 88.743 100.7 82.2546C104.554 74.9127 104.236 62.5566 94.3954 51.9726L94.3353 52.0951ZM27.8531 69.5881C27.9775 73.259 31.2564 76.3174 35.1833 76.3174H35.4408C39.5565 76.1949 42.7066 72.9568 42.5134 69.0981C42.5134 65.4272 39.1702 62.3728 35.2476 62.3728H34.9858C34.7283 62.3728 34.3464 62.3728 34.0202 62.4912C28.6857 53.9244 26.4325 44.7451 27.2737 34.843C27.7844 27.3786 30.3594 20.8902 34.9858 15.5084C38.8441 10.9187 46.1098 8.65248 51.0624 8.53406C64.9503 8.28498 70.7397 24.749 71.186 31.2946L77.615 33.128C76.1343 13.0625 63.0233 2.53564 50.483 2.53564C38.7153 2.53564 27.8531 10.6737 23.4756 22.6052C17.4973 38.5139 21.4199 53.806 28.75 66.0437C28.1106 66.84 27.7243 68.2446 27.8531 69.5881Z" fill="#AD00FF"/>
</svg>
