<svg width="127" height="89" viewBox="0 0 127 89" fill="none" xmlns="http://www.w3.org/2000/svg">
<path d="M109.217 51.0992C104.784 51.1173 100.946 52.1103 97.7403 53.5812C96.5726 51.3929 95.3653 49.4811 95.1673 48.0473C94.9304 46.3739 94.6727 45.3815 94.95 43.396C95.2273 41.41 96.4734 38.5971 96.4539 38.3952C96.4343 38.1931 96.1769 37.1817 93.6243 37.1633C91.0717 37.1451 88.8754 37.6228 88.6179 38.2479C88.3602 38.8729 87.8661 40.2888 87.5692 41.7595C87.114 43.9105 82.4635 51.5955 79.8316 55.6033C78.9611 54.041 78.2291 52.6617 78.0705 51.5587C77.8331 49.8854 77.5759 48.8929 77.8529 46.9074C78.13 44.9214 79.3764 42.1085 79.3566 41.9066C79.3367 41.7045 79.0795 40.6931 76.5272 40.6747C73.9743 40.6565 71.7784 41.1342 71.5206 41.7595C71.2634 42.3843 70.9863 43.8553 70.4719 45.2714C69.9577 46.6864 63.7637 59.4821 62.1411 62.8101C61.3097 64.5011 60.5978 65.8617 60.0831 66.7813C60.0043 66.9282 59.9448 67.0203 59.9052 67.094C59.9644 67.0021 60.0043 66.9097 60.0043 66.9471C59.5689 67.7372 59.3114 68.1785 59.3114 68.1785V68.1967C58.9749 68.7849 58.599 69.3179 58.4211 69.3179C58.3021 69.3179 58.0452 67.774 58.4806 65.6596C59.4103 61.2105 61.6068 54.2984 61.587 54.0589C61.5671 53.9302 62.0023 52.7354 60.1423 52.0916C58.3418 51.485 57.6885 52.4964 57.5305 52.4964C57.3724 52.4964 57.2534 52.8643 57.2534 52.8643C57.2534 52.8643 59.2522 45.0691 53.4145 45.0691C49.7735 45.0691 44.708 48.7831 42.2149 52.1474C40.6515 52.938 37.2675 54.6477 33.7059 56.4676C32.3405 57.1664 30.9354 57.883 29.6097 58.5636C29.5108 58.4712 29.4315 58.3794 29.3327 58.2875C22.2485 51.265 9.16857 46.301 9.72293 36.8693C9.92066 33.4313 11.207 24.4048 34.8735 13.4474C54.266 4.4757 69.7796 6.93937 72.4514 12.4178C76.2898 20.2315 64.1597 34.7738 44.0157 36.8693C36.3378 37.6599 32.3014 34.9022 31.2921 33.8729C30.2431 32.7883 30.0848 32.7328 29.689 32.9352C29.0358 33.266 29.4516 34.2222 29.689 34.792C30.2828 36.2442 32.7561 38.8182 36.9712 40.1051C40.6711 41.2266 49.6749 41.8519 60.5581 37.9357C72.7871 33.56 82.3054 21.3709 79.5152 11.1677C76.666 0.798998 58.1641 -2.6024 40.6518 3.1703C30.2236 6.60829 18.9444 12.0136 10.8311 19.0546C1.19436 27.4383 -0.348934 34.7367 0.283914 37.7888C2.53991 48.6171 18.6076 55.677 25.0388 60.8981C24.7221 61.0636 24.4252 61.2107 24.1484 61.3578C20.9231 62.8467 8.67424 68.8034 5.60694 75.0916C2.14445 82.2247 6.18058 87.3352 8.83231 88.0342C17.1037 90.1666 25.573 86.3243 30.1244 80.0182C34.6752 73.7125 34.1214 65.4762 32.0241 61.7255C32.004 61.6705 31.9646 61.6342 31.945 61.5784C32.7759 61.1191 33.6266 60.6593 34.4778 60.1998C36.1199 59.2989 37.723 58.4712 39.1278 57.7548C38.336 59.7406 37.7624 62.1295 37.4655 65.5864C37.1094 69.6308 38.9102 74.8705 41.2452 76.9297C42.2738 77.8306 43.5205 77.8493 44.2924 77.8493C47.0232 77.8493 48.2498 75.753 49.6152 73.2527C51.2973 70.2003 52.7814 66.6521 52.7814 66.6521C52.7814 66.6521 50.9214 76.2496 56.0067 76.2496C57.8667 76.2496 59.7273 74.0249 60.5578 72.8851V72.9032C60.5578 72.9032 60.5978 72.8301 60.6966 72.6832C60.8944 72.4071 60.9932 72.2416 60.9932 72.2416V72.1861C61.745 70.9912 63.3877 68.2517 65.8608 63.7294C69.0669 57.8828 72.1336 50.5839 72.1336 50.5839C72.1336 50.5839 72.4107 52.3677 73.361 55.3275C73.9148 57.074 75.0822 58.986 76.0122 60.8431C75.2607 61.7989 74.8052 62.3506 74.8052 62.3506C74.8052 62.3506 74.8052 62.3687 74.8244 62.3872C74.231 63.123 73.5585 63.9136 72.8659 64.6858C70.3328 67.48 67.325 70.6793 66.9296 71.5984C66.4542 72.6832 66.5732 73.4915 67.4836 74.117C68.1561 74.5952 69.3436 74.6684 70.59 74.5768C72.8659 74.4292 74.4686 73.9149 75.2403 73.5833C76.4669 73.1796 77.892 72.5356 79.2376 71.6349C81.7111 69.944 83.2153 67.5171 83.0762 64.3181C82.9972 62.5532 82.3834 60.788 81.6315 59.1339C81.8494 58.8394 82.087 58.5265 82.3046 58.2146C86.2231 52.9007 89.2505 47.0735 89.2505 47.0735C89.2505 47.0735 89.5275 48.8563 90.4771 51.8163C90.9521 53.3057 91.8821 54.9419 92.7328 56.541C89.0522 59.3174 86.7769 62.535 85.9852 64.6487C84.5207 68.5649 85.6685 70.3293 87.8254 70.7346C88.795 70.9183 90.1802 70.4951 91.2094 70.0906C92.4954 69.6861 94.039 69.0426 95.4834 68.0498C97.957 66.3589 100.352 63.9868 100.193 60.7696C100.134 59.3171 99.6985 57.8648 99.1246 56.4676C102.231 55.2546 106.269 54.5921 111.413 55.144C122.435 56.3389 124.592 62.7367 124.176 65.4022C123.761 68.0867 121.446 69.5576 120.674 69.9987C119.902 70.4401 119.665 70.6056 119.724 70.9365C119.823 71.4144 120.179 71.3962 120.832 71.2854C121.743 71.1386 126.61 69.116 126.828 64.1705C127.145 57.9196 120.675 51.0441 109.217 51.0992ZM24.2671 77.7016C20.6265 81.397 15.521 82.7943 13.3248 81.6176C10.9699 80.3495 11.8999 74.9074 16.3918 70.9728C19.1226 68.5831 22.6448 66.377 24.9798 65.0166C25.5141 64.7226 26.286 64.2813 27.2358 63.7481C27.3942 63.6567 27.4732 63.6196 27.4732 63.6196C27.6511 63.5089 27.8491 63.4173 28.0471 63.3067C29.689 68.8957 28.1061 73.8225 24.2671 77.7016ZM50.8624 60.8981C49.5959 63.7842 46.9243 71.1383 45.3023 70.7522C43.9171 70.4212 43.0658 64.814 45.0252 59.2989C46.0145 56.5226 48.1118 53.2136 49.3588 51.9269C51.357 49.849 53.5535 49.1871 54.0683 50.0146C54.7606 51.0992 51.6536 59.0966 50.8624 60.8981ZM72.8268 70.6425C72.2928 70.8996 71.7979 71.0649 71.5605 70.9362C71.3826 70.8443 71.7784 70.4948 71.7784 70.4948C71.7784 70.4948 74.5284 67.7556 75.617 66.505C76.2501 65.7699 76.9821 64.9056 77.7739 63.95C77.7739 64.0413 77.7932 64.1339 77.7932 64.2437C77.7742 67.535 74.3706 69.76 72.8268 70.6425ZM89.7658 67.0571C89.37 66.7997 89.429 65.9357 90.755 63.2512C91.2697 62.2032 92.4572 60.4385 94.5146 58.7471C94.7523 59.4455 94.8905 60.1072 94.8905 60.7323C94.8704 64.869 91.685 66.4134 89.7658 67.0571Z" fill="#CF649A"/>
</svg>
