<svg width="119" height="131" viewBox="0 0 119 131" fill="none" xmlns="http://www.w3.org/2000/svg">
<path d="M91.729 51.9087C88.0105 50.4989 84.7282 47.9639 82.2586 44.5945C79.5367 40.8405 76.0709 37.8215 72.1262 35.7685C68.1816 33.7156 63.8627 32.6831 59.4998 32.75C53.631 32.2924 47.8209 34.2851 43.2266 38.3311C38.6323 42.3772 35.591 48.1798 34.7082 54.5833C36.4469 51.3806 39.0638 48.8677 42.1823 47.4062C45.3008 45.9448 48.7601 45.6101 52.0623 46.4504C55.7746 47.9012 59.0515 50.4509 61.5327 53.8191C64.2696 57.5432 67.742 60.531 71.6858 62.5551C75.6296 64.5793 79.9408 65.5864 84.2915 65.5C90.1604 65.9575 95.9704 63.9648 100.565 59.9188C105.159 55.8727 108.2 50.0701 109.083 43.6666C107.376 46.9076 104.767 49.4585 101.643 50.9426C98.5177 52.4267 95.0421 52.7654 91.729 51.9087ZM27.2707 79.0912C30.9892 80.501 34.2714 83.036 36.7411 86.4054C39.463 90.1594 42.9288 93.1784 46.8734 95.2314C50.8181 97.2843 55.137 98.3168 59.4998 98.25C65.3687 98.7075 71.1788 96.7148 75.7731 92.6688C80.3673 88.6227 83.4087 82.8201 84.2915 76.4166C82.5527 79.6193 79.9358 82.1322 76.8173 83.5937C73.6988 85.0551 70.2396 85.3898 66.9373 84.5495C63.2251 83.0987 59.9482 80.549 57.4669 77.1808C54.7228 73.4659 51.2489 70.4847 47.3068 68.4614C43.3647 66.4382 39.0571 65.4256 34.7082 65.5C28.8393 65.0424 23.0292 67.0351 18.4349 71.0811C13.8407 75.1272 10.7993 80.9298 9.9165 87.3333C11.6237 84.0923 14.2323 81.5414 17.3571 80.0573C20.482 78.5732 23.9576 78.2345 27.2707 79.0912Z" fill="black"/>
</svg>
