<svg width="93" height="94" viewBox="0 0 93 94" fill="none" xmlns="http://www.w3.org/2000/svg">
<g clip-path="url(#clip0_1006_303)">
<path fill-rule="evenodd" clip-rule="evenodd" d="M0 0H93V94H0V0ZM62 37.6C55.1517 37.6 49.6 43.2114 49.6 50.1333C49.6 57.0553 55.1517 62.6667 62 62.6667H68.2C71.6243 62.6667 74.4 65.4723 74.4 68.9333C74.4 72.3944 71.6243 75.2 68.2 75.2H62C58.5759 75.2 55.8 72.3944 55.8 68.9333H49.6C49.6 75.8555 55.1517 81.4667 62 81.4667H68.2C75.0485 81.4667 80.6 75.8555 80.6 68.9333C80.6 62.0114 75.0485 56.4 68.2 56.4H62C58.5759 56.4 55.8 53.5943 55.8 50.1333C55.8 46.6724 58.5759 43.8667 62 43.8667H69.2335C72.0868 43.8667 74.4 46.2048 74.4 49.0889V50.1333H80.6V49.0889C80.6 42.7437 75.511 37.6 69.2335 37.6H62ZM18.6 37.6H49.6V43.8667H37.2V81.4667H31V43.8667H18.6V37.6Z" fill="#3178C6"/>
</g>
<defs>
<clipPath id="clip0_1006_303">
<rect width="93" height="94" fill="white"/>
</clipPath>
</defs>
</svg>
